# xmcd CD database file
#
# Track frame offsets:
#	150
#	34322
#	57568
#	78431
#	103795
#	126911
#	139960
#	171422
#
# Disc length: 2618 seconds
#
# Revision: 0
# Processed by: cddbd v1.5.2PL0 Copyright (c) Steve Scherf et al.
# Submitted via: CDex 1.51
#
DISCID=770a3808
DTITLE=tilmann höhn, markus fleischer, john stowell - all those dreams told to the moon
DYEAR=2013
DGENRE=Jazz
TTITLE0=where's charlie
TTITLE1=all those dreams told to the moon
TTITLE2=snoopy's not here
TTITLE3=blanca's song
TTITLE4=sleepy twins
TTITLE5=prayer
TTITLE6=lucy left town
TTITLE7=bagatelle
EXTD=YEAR: 2013
EXTT0=
EXTT1=
EXTT2=
EXTT3=
EXTT4=
EXTT5=
EXTT6=
EXTT7=
PLAYORDER=
